<svg width="37" height="37" viewBox="0 0 37 37" fill="none" xmlns="http://www.w3.org/2000/svg">
<path d="M27.0045 0H9.19446C4.15209 0 0.0644531 4.10062 0.0644531 9.159V27.0256C0.0644531 32.0839 4.15209 36.1846 9.19446 36.1846H27.0045C32.0468 36.1846 36.1345 32.0839 36.1345 27.0256V9.159C36.1345 4.10062 32.0468 0 27.0045 0Z" fill="white"/>
<path d="M23.6325 11.3858C23.3884 11.3838 23.1493 11.4548 22.9455 11.5896C22.7417 11.7245 22.5825 11.9172 22.4881 12.1431C22.3938 12.3691 22.3686 12.6181 22.4157 12.8585C22.4629 13.0988 22.5802 13.3197 22.7528 13.4929C22.9254 13.6662 23.1455 13.784 23.385 13.8313C23.6246 13.8786 23.8727 13.8533 24.0979 13.7586C24.323 13.6639 24.515 13.5042 24.6494 13.2997C24.7838 13.0951 24.8545 12.8551 24.8526 12.6101C24.8499 12.2862 24.7206 11.9763 24.4923 11.7473C24.2641 11.5182 23.9553 11.3884 23.6325 11.3858Z" fill="#5C768D"/>
<path d="M18.1441 12.9609C17.1251 12.9609 16.129 13.2642 15.2819 13.8324C14.4348 14.4006 13.7747 15.2082 13.3852 16.1529C12.9957 17.0977 12.8943 18.1371 13.0938 19.1397C13.2934 20.1422 13.7848 21.0629 14.5061 21.7851C15.2273 22.5073 16.1459 22.9986 17.1455 23.1969C18.1452 23.3951 19.181 23.2913 20.1219 22.8987C21.0628 22.5061 21.8664 21.8423 22.4311 20.9912C22.9957 20.1402 23.2961 19.1402 23.2942 18.1179C23.2915 16.7493 22.7477 15.4376 21.7822 14.4708C20.8167 13.5039 19.5083 12.9609 18.1441 12.9609ZM18.1441 21.4288C17.4914 21.4288 16.8534 21.2346 16.3107 20.8708C15.7681 20.507 15.3451 19.9899 15.0953 19.3849C14.8455 18.7799 14.7802 18.1142 14.9076 17.472C15.0349 16.8297 15.3492 16.2398 15.8107 15.7767C16.2722 15.3137 16.8602 14.9984 17.5003 14.8706C18.1405 14.7429 18.804 14.8084 19.407 15.059C20.01 15.3096 20.5254 15.734 20.888 16.2785C21.2506 16.8229 21.4441 17.4631 21.4441 18.1179C21.4441 18.996 21.0964 19.8381 20.4776 20.459C19.8587 21.0799 19.0193 21.4288 18.1441 21.4288Z" fill="#5C768D"/>
<path d="M22.2743 28.5908H13.9343C12.2704 28.5908 10.6746 27.9285 9.49719 26.7492C8.31975 25.5699 7.65695 23.97 7.6543 22.3009V13.9344C7.65695 12.2653 8.31975 10.6655 9.49719 9.48619C10.6746 8.30689 12.2704 7.64453 13.9343 7.64453H22.2743C23.9372 7.64453 25.532 8.3072 26.7078 9.48679C27.8837 10.6664 28.5443 12.2662 28.5443 13.9344V22.3009C28.5443 23.9691 27.8837 25.569 26.7078 26.7485C25.532 27.9281 23.9372 28.5908 22.2743 28.5908ZM13.9343 9.61075C12.792 9.6134 11.6973 10.0698 10.8896 10.8801C10.0819 11.6903 9.62691 12.7885 9.62427 13.9344V22.3009C9.62427 23.4476 10.0784 24.5474 10.8867 25.3582C11.6949 26.1691 12.7912 26.6246 13.9343 26.6246H22.2743C23.4166 26.622 24.5113 26.1656 25.319 25.3553C26.1267 24.545 26.5816 23.4468 26.5843 22.3009V13.9344C26.5816 12.7885 26.1267 11.6903 25.319 10.8801C24.5113 10.0698 23.4166 9.6134 22.2743 9.61075H13.9343Z" fill="#5C768D"/>
</svg>
