<svg width="36" height="36" viewBox="0 0 36 36" fill="none" xmlns="http://www.w3.org/2000/svg">
<path d="M26.189 35.165H20.2493L17.5371 34.2679L14.8443 35.165H8.87548C6.52156 35.165 4.26406 34.227 2.59958 32.5573C0.93511 30.8876 0 28.623 0 26.2616V8.89365C-7.00386e-07 7.7249 0.229656 6.56761 0.67581 5.48794C1.12196 4.40828 1.77589 3.42743 2.60018 2.60145C3.42447 1.77547 4.40299 1.12057 5.47976 0.674192C6.55652 0.227818 7.71039 -0.00127618 8.87548 5.3469e-06H26.189C27.3541 -0.00127618 28.508 0.227818 29.5848 0.674192C30.6615 1.12057 31.64 1.77547 32.4643 2.60145C33.2886 3.42743 33.9425 4.40828 34.3886 5.48794C34.8348 6.56761 35.0645 7.7249 35.0645 8.89365V26.2616C35.0645 28.623 34.1293 30.8876 32.4649 32.5573C30.8004 34.227 28.5429 35.165 26.189 35.165V35.165Z" fill="white"/>
<path d="M14.8236 13.7502V17.5826H10.4297V22.6243H14.8236V35.1846H20.2384V22.6243H24.2727L25.0406 17.6021H20.2384V14.345C20.2047 13.9699 20.2554 13.592 20.3868 13.2392C20.5182 12.8863 20.7269 12.5676 20.9975 12.3064C21.2681 12.0453 21.5936 11.8484 21.9502 11.7304C22.3067 11.6123 22.6852 11.5761 23.0575 11.6243H25.2448V7.35303C23.9588 7.14356 22.6591 7.02948 21.3563 7.01172C17.4095 7.02147 14.8236 9.4009 14.8236 13.7502Z" fill="#5C768D"/>
</svg>
